# xmcd
# 
# Track frame offsets:
#     150
#     9652
#     26006
#     35840
#     50133
#     62941
#     75130
#     87530
#     104039
#     116210
# 
# Disc length: 1754
# 
# Revision: 0
# Processed by: cddbd v1.5.2PL0 Copyright (c) Steve Scherf et al.
# Submitted via: BonkEnc v1.0.6
# 
DISCID=8b06d80a
DTITLE=Merle Haggard - Country Rebel
DYEAR=0
DGENRE=Country
TTITLE0=The Legend Of Bonnie and Clyde
TTITLE1=Hungry Eyes
TTITLE2=Mama Tried
TTITLE3=Branded Man
TTITLE4=Sing Me Back Home
TTITLE5=Okie From Muskogee
TTITLE6=If We Make It Through December
TTITLE7=Daddy Frank (The Guitar Man)
TTITLE8=Everybody's Had The Blues
TTITLE9=Twinkle Twinkle Lucky Star
EXTD=
EXTT0=
EXTT1=
EXTT2=
EXTT3=
EXTT4=
EXTT5=
EXTT6=
EXTT7=
EXTT8=
EXTT9=
PLAYORDER=
